<svg width="365.284" height="370.802" viewBox="0 0 65.284 70.802" xmlns="http://www.w3.org/2000/svg"><g id="svgGroup" stroke-linecap="round" fill-rule="evenodd" font-size="9pt" stroke="#000" stroke-width="1.0mm" fill="#000" style="stroke:#000;stroke-width:1.0mm;fill:#000"><path d="M 56.691 55.616 L 56.691 43.213 L 36.134 43.213 L 36.134 35.401 L 65.284 35.401 L 65.284 59.131 A 36.408 36.408 0 0 1 54.3 66.734 A 43.083 43.083 0 0 1 51.881 67.75 A 46.32 46.32 0 0 1 38.101 70.694 A 54.232 54.232 0 0 1 34.669 70.801 A 44.682 44.682 0 0 1 25.84 69.969 A 33.019 33.019 0 0 1 16.163 66.456 A 29.55 29.55 0 0 1 4.2 54.078 A 36.043 36.043 0 0 1 0.694 43.515 A 48.796 48.796 0 0 1 0.001 35.108 A 50.299 50.299 0 0 1 0.969 24.932 Q 2.949 15.348 8.986 9.18 Q 17.97 0 34.23 0 A 55.714 55.714 0 0 1 41.577 0.456 Q 48.106 1.326 52.784 3.858 A 23.909 23.909 0 0 1 61.564 12.139 A 31.762 31.762 0 0 1 63.771 16.211 L 54.884 18.848 A 21.062 21.062 0 0 0 51.556 13.95 A 17.309 17.309 0 0 0 46.803 10.303 Q 41.652 7.618 33.986 7.618 A 31.565 31.565 0 0 0 26.772 8.393 Q 20.97 9.754 17.031 13.506 A 19.963 19.963 0 0 0 15.773 14.82 Q 10.435 20.923 9.621 31.251 A 49.078 49.078 0 0 0 9.474 35.108 A 41.166 41.166 0 0 0 10.264 43.422 Q 11.346 48.666 13.908 52.695 A 23.555 23.555 0 0 0 16.163 55.689 A 21.938 21.938 0 0 0 29.407 62.818 A 31.98 31.98 0 0 0 34.669 63.233 A 39.078 39.078 0 0 0 43.865 62.179 A 34.805 34.805 0 0 0 47.242 61.182 A 30.432 30.432 0 0 0 52.074 59.023 A 22.114 22.114 0 0 0 56.691 55.616 Z" vector-effect="non-scaling-stroke"/></g></svg>